<?xml version="1.0" encoding="UTF-8" standalone="no"?>
<svg
   xmlns:dc="http://purl.org/dc/elements/1.1/"
   xmlns:cc="http://creativecommons.org/ns#"
   xmlns:rdf="http://www.w3.org/1999/02/22-rdf-syntax-ns#"
   xmlns:svg="http://www.w3.org/2000/svg"
   xmlns="http://www.w3.org/2000/svg"
   xmlns:sodipodi="http://sodipodi.sourceforge.net/DTD/sodipodi-0.dtd"
   xmlns:inkscape="http://www.inkscape.org/namespaces/inkscape"
   aria-hidden="true"
   data-prefix="fas"
   data-icon="arrow-down"
   class="svg-inline--fa fa-arrow-down fa-w-14"
   role="img"
   viewBox="0 0 487.33401 500"
   id="svg2"
   version="1.1"
   inkscape:version="0.91 r13725"
   sodipodi:docname="scroll-w.svg"
   width="487.33401"
   height="500">
  <metadata
     id="metadata10">
    <rdf:RDF>
      <cc:Work
         rdf:about="">
        <dc:format>image/svg+xml</dc:format>
        <dc:type
           rdf:resource="http://purl.org/dc/dcmitype/StillImage" />
        <dc:title></dc:title>
      </cc:Work>
    </rdf:RDF>
  </metadata>
  <defs
     id="defs8" />
  <sodipodi:namedview
     pagecolor="#ffffff"
     bordercolor="#666666"
     borderopacity="1"
     objecttolerance="10"
     gridtolerance="10"
     guidetolerance="10"
     inkscape:pageopacity="0"
     inkscape:pageshadow="2"
     inkscape:window-width="1366"
     inkscape:window-height="717"
     id="namedview6"
     showgrid="false"
     fit-margin-top="0"
     fit-margin-left="0"
     fit-margin-right="0"
     fit-margin-bottom="0"
     inkscape:zoom="0.4609375"
     inkscape:cx="240.04491"
     inkscape:cy="224.05"
     inkscape:window-x="0"
     inkscape:window-y="0"
     inkscape:window-maximized="1"
     inkscape:current-layer="svg2" />
  <path
     d="m 454.69256,212.58788 24.77402,24.77402 c 10.4899,10.4899 10.4899,27.45229 0,37.8306 L 262.6381,492.13257 c -10.4899,10.48991 -27.45229,10.48991 -37.8306,0 L 7.8674259,275.1925 c -10.4899012,-10.4899 -10.4899012,-27.45229 0,-37.8306 L 32.641446,212.58788 c 10.601496,-10.60149 27.898672,-10.37831 38.276978,0.44638 l 128.110706,134.4716 0,-320.723135 C 199.02913,11.940632 210.96976,0 225.81185,0 l 35.7103,0 c 14.8421,0 26.78273,11.940632 26.78273,26.782725 l 0,320.723135 128.1107,-134.4716 c 10.3783,-10.93628 27.67548,-11.15947 38.27698,-0.44638 z"
     id="path4"
     inkscape:connector-curvature="0"
     style="fill:#ffffff;fill-opacity:1" />
</svg>
